<svg id="svg" version="1.1" width="400" height="400" xmlns="http://www.w3.org/2000/svg" xmlns:xlink="http://www.w3.org/1999/xlink" style="display: block;"><g id="svgg"><path id="path0" d="M77.415 3.700 C 77.273 5.735,77.211 15.320,77.278 25.000 L 77.400 42.600 95.600 42.719 C 105.610 42.784,114.745 42.726,115.900 42.590 L 118.000 42.342 118.000 23.650 L 118.000 4.957 116.600 3.600 C 115.656 2.685,115.200 1.878,115.200 1.122 L 115.200 0.000 96.437 -0.000 L 77.675 -0.000 77.415 3.700 M148.427 3.900 C 148.122 6.460,148.004 13.780,148.082 25.200 L 148.200 42.600 166.200 42.719 C 176.100 42.784,185.145 42.726,186.300 42.590 L 188.400 42.342 188.398 24.271 L 188.397 6.200 187.200 4.400 C 186.488 3.329,186.003 2.074,186.002 1.300 L 186.000 0.000 167.445 0.000 L 148.890 0.000 148.427 3.900 M6.214 74.876 C 6.075 76.264,6.014 85.590,6.080 95.600 L 6.200 113.800 24.000 113.921 C 33.790 113.987,43.117 113.926,44.727 113.784 L 47.653 113.527 47.527 93.583 C 47.427 77.894,47.289 73.528,46.880 73.120 C 46.471 72.711,42.109 72.574,26.415 72.476 L 6.469 72.353 6.214 74.876 M77.397 73.300 C 77.277 73.795,77.228 83.110,77.289 94.000 L 77.400 113.800 94.400 113.922 C 103.750 113.989,112.885 113.927,114.700 113.786 L 118.000 113.528 117.994 93.864 C 117.991 83.049,117.856 74.004,117.694 73.765 C 116.919 72.618,113.399 72.400,95.630 72.400 L 77.615 72.400 77.397 73.300 M148.524 72.900 C 148.346 73.175,148.144 82.439,148.077 93.486 L 147.953 113.573 148.905 113.812 C 150.329 114.169,187.321 113.851,187.900 113.476 C 188.288 113.225,188.400 109.119,188.400 95.182 C 188.400 74.947,188.287 73.846,186.113 72.938 C 184.299 72.180,149.013 72.144,148.524 72.900 M219.549 73.061 C 218.786 73.980,218.466 112.515,219.213 113.416 C 219.722 114.029,254.627 114.242,257.400 113.649 L 258.600 113.392 258.600 94.996 C 258.600 75.045,258.480 73.729,256.583 72.865 C 254.769 72.039,220.246 72.221,219.549 73.061 M290.349 73.061 C 289.283 74.345,289.300 113.011,290.367 113.582 C 291.350 114.108,327.879 114.007,328.700 113.476 C 329.088 113.225,329.200 109.122,329.200 95.196 C 329.200 76.523,328.986 73.542,327.592 72.796 C 326.164 72.031,290.996 72.282,290.349 73.061 M219.376 143.781 C 218.674 144.852,218.661 182.581,219.362 184.100 C 219.781 185.007,255.747 185.199,256.874 184.300 C 258.618 182.909,258.800 180.810,258.800 162.137 L 258.800 144.416 257.216 143.608 C 255.697 142.833,254.902 142.800,237.825 142.800 L 220.018 142.800 219.376 143.781 M361.282 143.592 L 360.364 144.357 360.482 163.679 C 360.573 178.506,360.720 183.209,361.114 183.900 L 361.628 184.800 380.814 184.800 L 400.000 184.800 400.000 163.800 L 400.000 142.800 381.100 142.813 C 363.082 142.826,362.157 142.862,361.282 143.592 M6.381 214.650 C 5.885 215.955,6.020 252.721,6.524 253.500 C 6.951 254.160,40.880 254.220,44.080 253.567 C 47.821 252.804,47.600 254.070,47.600 233.365 L 47.600 215.218 46.518 214.509 C 45.527 213.860,43.813 213.790,26.118 213.676 L 6.799 213.551 6.381 214.650 M77.452 214.500 C 77.132 215.696,77.130 251.148,77.450 252.750 L 77.700 254.000 95.500 254.000 L 113.300 254.000 115.654 252.944 L 118.008 251.887 117.904 233.478 L 117.800 215.069 115.800 214.365 C 114.011 213.736,111.899 213.659,95.747 213.631 L 77.693 213.600 77.452 214.500 M361.270 214.526 C 359.933 215.949,359.900 250.496,361.233 252.653 L 362.065 254.000 381.033 254.000 L 400.000 254.000 400.000 233.800 L 400.000 213.600 381.070 213.600 L 362.139 213.600 361.270 214.526 M6.390 285.426 C 5.760 287.083,5.875 322.476,6.513 323.348 C 7.301 324.426,44.850 324.184,46.518 323.091 L 47.600 322.382 47.600 304.467 C 47.600 290.743,47.483 286.404,47.100 285.915 C 46.093 284.629,42.687 284.400,24.570 284.400 L 6.780 284.400 6.390 285.426 M77.452 285.300 C 77.136 286.480,77.127 322.544,77.443 323.367 C 77.814 324.336,112.215 324.318,115.674 323.347 L 118.000 322.695 118.000 304.401 L 118.000 286.107 115.659 285.254 C 113.400 284.430,112.693 284.400,95.506 284.400 L 77.693 284.400 77.452 285.300 M290.274 285.814 C 289.187 288.094,289.280 321.785,290.377 323.100 L 291.128 324.000 308.817 324.000 C 326.038 324.000,326.541 323.978,327.853 323.167 L 329.200 322.335 329.200 304.388 L 329.200 286.441 327.862 285.420 L 326.524 284.400 308.736 284.400 L 290.948 284.400 290.274 285.814 M361.229 285.454 C 360.418 286.484,360.400 286.905,360.400 304.384 L 360.400 322.261 361.326 323.130 C 362.249 323.998,362.298 324.000,381.126 324.000 L 400.000 324.000 400.000 304.200 L 400.000 284.400 381.029 284.400 L 362.058 284.400 361.229 285.454 M6.524 355.700 C 6.158 356.264,5.843 392.105,6.191 393.500 L 6.415 394.400 25.982 394.400 C 37.727 394.400,45.958 394.244,46.574 394.010 L 47.600 393.620 47.600 375.829 C 47.600 355.687,47.693 356.344,44.733 355.660 C 41.783 354.979,6.967 355.015,6.524 355.700 M148.439 356.460 C 147.791 358.318,147.829 393.269,148.480 393.920 C 149.135 394.575,184.032 394.605,186.623 393.953 L 188.400 393.505 188.400 375.544 L 188.400 357.582 186.522 356.391 L 184.643 355.200 166.761 355.200 L 148.878 355.200 148.439 356.460 M219.405 356.649 C 218.663 358.425,218.488 392.270,219.214 393.626 C 219.771 394.666,254.961 394.845,257.413 393.820 L 258.800 393.241 258.800 375.487 L 258.800 357.734 257.223 356.467 L 255.647 355.200 237.829 355.200 L 220.011 355.200 219.405 356.649 M290.274 356.614 C 289.199 358.867,289.252 392.761,290.331 393.738 C 291.259 394.577,326.370 394.761,328.181 393.936 L 329.200 393.472 329.200 375.614 L 329.200 357.757 327.881 356.478 L 326.562 355.200 308.755 355.200 L 290.948 355.200 290.274 356.614 " stroke="none" fill="#000000" fill-rule="evenodd"></path><path id="path1" d="M76.000 21.338 C 76.000 41.502,76.040 42.712,76.731 43.338 C 77.978 44.466,116.581 44.332,118.816 43.192 L 120.400 42.384 120.401 24.492 C 120.401 13.155,120.232 5.391,119.940 3.300 L 119.479 0.000 117.339 0.000 C 114.589 -0.000,114.307 1.377,116.600 3.600 L 118.000 4.957 118.000 23.650 L 118.000 42.342 115.900 42.590 C 114.745 42.726,105.610 42.784,95.600 42.719 L 77.400 42.600 77.400 21.300 C 77.400 1.281,77.358 -0.000,76.700 -0.000 C 76.042 -0.000,76.000 1.283,76.000 21.338 M146.661 4.863 C 146.518 7.537,146.400 17.064,146.400 26.034 L 146.400 42.342 147.476 43.188 C 149.009 44.395,187.866 44.305,189.718 43.091 L 190.800 42.382 190.798 24.491 C 190.796 14.651,190.680 5.115,190.538 3.300 L 190.281 0.000 188.141 0.000 L 186.000 0.000 186.002 1.300 C 186.003 2.074,186.488 3.329,187.200 4.400 L 188.397 6.200 188.398 24.271 L 188.400 42.342 186.300 42.590 C 185.145 42.726,176.100 42.784,166.200 42.719 L 148.200 42.600 148.200 24.000 C 148.200 13.770,148.349 4.185,148.532 2.700 C 148.862 0.017,148.857 0.000,147.893 0.000 C 146.934 0.000,146.920 0.054,146.661 4.863 M6.026 71.149 C 5.025 73.112,4.702 113.342,5.680 114.320 C 6.505 115.145,46.301 114.993,48.392 114.157 L 50.000 113.513 50.000 93.533 L 50.000 73.553 48.227 71.677 L 46.454 69.800 26.653 69.665 L 6.852 69.530 6.026 71.149 M76.880 71.411 C 75.617 74.011,75.481 113.007,76.731 114.138 C 77.863 115.162,116.851 115.144,119.000 114.119 L 120.428 113.439 120.314 93.388 L 120.200 73.337 119.119 71.920 C 117.515 69.818,115.235 69.600,94.863 69.600 L 77.759 69.600 76.880 71.411 M147.717 71.500 L 146.600 73.400 146.465 93.200 L 146.329 113.000 147.305 113.914 L 148.282 114.828 168.641 114.714 C 184.320 114.626,189.207 114.482,189.900 114.086 L 190.800 113.572 190.800 93.471 L 190.800 73.370 189.700 72.089 C 187.706 69.769,186.122 69.600,166.333 69.600 L 148.834 69.600 147.717 71.500 M219.317 70.500 C 217.160 72.859,217.200 72.418,217.200 93.770 L 217.200 113.579 218.408 114.204 C 220.378 115.223,258.953 114.917,260.550 113.870 L 261.664 113.139 261.532 93.270 C 261.379 70.315,261.647 71.830,257.494 70.427 C 255.166 69.641,254.180 69.600,237.592 69.600 L 220.139 69.600 219.317 70.500 M289.395 71.341 C 287.242 73.588,287.200 74.063,287.200 96.251 L 287.200 113.182 288.283 113.891 C 289.696 114.817,329.503 114.998,331.100 114.086 L 332.000 113.572 332.000 93.475 C 332.000 70.631,332.236 72.191,328.533 70.554 L 326.377 69.600 308.720 69.600 L 291.063 69.600 289.395 71.341 M46.880 73.120 C 47.289 73.528,47.427 77.894,47.527 93.583 L 47.653 113.527 44.727 113.784 C 43.117 113.926,33.790 113.987,24.000 113.921 L 6.200 113.800 6.080 95.600 C 6.014 85.590,6.075 76.264,6.214 74.876 L 6.469 72.353 26.415 72.476 C 42.109 72.574,46.471 72.711,46.880 73.120 M115.523 72.865 C 118.141 73.513,117.987 72.206,117.994 93.864 L 118.000 113.528 114.700 113.786 C 112.885 113.927,103.750 113.989,94.400 113.922 L 77.400 113.800 77.289 94.000 C 77.228 83.110,77.277 73.795,77.397 73.300 L 77.615 72.400 95.630 72.400 C 107.972 72.400,114.237 72.546,115.523 72.865 M186.113 72.938 C 188.287 73.846,188.400 74.947,188.400 95.182 C 188.400 109.119,188.288 113.225,187.900 113.476 C 187.321 113.851,150.329 114.169,148.905 113.812 L 147.953 113.573 148.077 93.486 C 148.144 82.439,148.346 73.175,148.524 72.900 C 149.013 72.144,184.299 72.180,186.113 72.938 M256.583 72.865 C 258.480 73.729,258.600 75.045,258.600 94.996 L 258.600 113.392 257.400 113.649 C 254.627 114.242,219.722 114.029,219.213 113.416 C 218.466 112.515,218.786 73.980,219.549 73.061 C 220.246 72.221,254.769 72.039,256.583 72.865 M327.592 72.796 C 328.986 73.542,329.200 76.523,329.200 95.196 C 329.200 109.122,329.088 113.225,328.700 113.476 C 327.879 114.007,291.350 114.108,290.367 113.582 C 289.300 113.011,289.283 74.345,290.349 73.061 C 290.996 72.282,326.164 72.031,327.592 72.796 M218.412 142.100 L 217.208 144.200 217.204 163.250 C 217.199 184.908,217.160 184.442,219.052 185.344 C 220.752 186.155,252.177 186.326,257.374 185.553 C 261.734 184.904,261.381 186.701,261.530 164.382 C 261.710 137.328,264.307 140.000,237.834 140.000 L 219.616 140.000 218.412 142.100 M359.696 141.627 L 357.593 143.242 357.696 163.907 L 357.800 184.572 360.000 185.261 C 363.131 186.243,400.000 186.371,400.000 185.400 C 400.000 184.875,397.602 184.800,380.814 184.800 L 361.628 184.800 361.114 183.900 C 360.720 183.209,360.573 178.506,360.482 163.679 L 360.364 144.357 361.282 143.592 C 362.157 142.862,363.082 142.826,381.100 142.813 L 400.000 142.800 400.000 141.400 L 400.000 140.000 380.900 140.007 L 361.800 140.013 359.696 141.627 M257.216 143.608 L 258.800 144.416 258.800 162.137 C 258.800 180.810,258.618 182.909,256.874 184.300 C 255.747 185.199,219.781 185.007,219.362 184.100 C 218.661 182.581,218.674 144.852,219.376 143.781 L 220.018 142.800 237.825 142.800 C 254.902 142.800,255.697 142.833,257.216 143.608 M5.890 211.900 C 5.133 213.599,5.188 254.822,5.949 255.739 C 6.698 256.641,45.949 256.732,47.568 255.835 C 49.839 254.577,49.953 253.515,49.978 233.486 C 50.002 213.478,50.124 214.614,47.652 211.900 L 46.650 210.800 26.515 210.800 L 6.380 210.800 5.890 211.900 M76.789 212.500 C 75.284 215.817,75.718 255.045,77.271 256.064 C 78.287 256.731,117.893 256.285,118.528 255.600 C 120.300 253.687,120.400 252.503,120.396 233.492 L 120.392 215.400 119.220 213.356 C 117.690 210.689,118.779 210.810,96.280 210.804 L 77.561 210.800 76.789 212.500 M359.347 212.547 L 357.600 214.295 357.600 233.525 C 357.600 252.197,357.624 252.795,358.421 254.145 C 359.738 256.378,359.961 256.400,380.860 256.400 L 400.000 256.400 400.000 255.200 L 400.000 254.000 381.033 254.000 L 362.065 254.000 361.233 252.653 C 360.421 251.340,360.400 250.842,360.400 233.323 L 360.400 215.339 361.326 214.470 C 362.249 213.602,362.298 213.600,381.126 213.600 L 400.000 213.600 400.000 212.200 L 400.000 210.800 380.547 210.800 L 361.095 210.800 359.347 212.547 M46.518 214.509 L 47.600 215.218 47.600 233.365 C 47.600 254.070,47.821 252.804,44.080 253.567 C 40.880 254.220,6.951 254.160,6.524 253.500 C 6.020 252.721,5.885 215.955,6.381 214.650 L 6.799 213.551 26.118 213.676 C 43.813 213.790,45.527 213.860,46.518 214.509 M115.800 214.365 L 117.800 215.069 117.904 233.478 L 118.008 251.887 115.654 252.944 L 113.300 254.000 95.500 254.000 L 77.700 254.000 77.450 252.750 C 77.130 251.148,77.132 215.696,77.452 214.500 L 77.693 213.600 95.747 213.631 C 111.899 213.659,114.011 213.736,115.800 214.365 M5.890 282.700 C 5.138 284.388,5.192 323.706,5.949 325.500 L 6.497 326.800 26.216 326.800 C 48.212 326.800,46.742 326.951,48.620 324.492 L 50.000 322.685 50.000 304.527 C 50.000 287.034,49.970 286.309,49.183 284.767 C 47.429 281.328,49.366 281.600,26.590 281.600 L 6.380 281.600 5.890 282.700 M77.291 282.100 C 75.701 284.051,75.261 321.734,76.789 325.100 L 77.561 326.800 96.480 326.753 C 118.148 326.698,117.315 326.783,119.080 324.468 L 120.400 322.738 120.391 304.469 L 120.381 286.200 119.291 284.215 C 118.588 282.936,117.845 282.132,117.200 281.955 C 115.243 281.416,77.737 281.552,77.291 282.100 M289.813 282.244 C 289.459 282.599,288.726 283.763,288.184 284.831 L 287.200 286.773 287.200 304.522 L 287.200 322.270 288.822 324.535 L 290.444 326.800 308.868 326.800 L 327.292 326.800 329.199 325.762 C 332.091 324.188,332.000 324.884,331.999 304.281 C 331.999 283.589,332.014 283.706,329.200 282.301 C 327.145 281.274,290.835 281.222,289.813 282.244 M360.800 281.875 C 360.470 281.975,359.615 282.783,358.900 283.672 L 357.600 285.287 357.600 304.434 L 357.600 323.581 359.636 325.191 L 361.672 326.800 380.836 326.800 L 400.000 326.800 400.000 325.400 L 400.000 324.000 381.070 324.000 L 362.139 324.000 361.270 323.074 C 359.934 321.653,359.897 287.147,361.229 285.454 L 362.058 284.400 381.029 284.400 L 400.000 284.400 400.000 283.000 L 400.000 281.600 380.700 281.646 C 370.085 281.672,361.130 281.775,360.800 281.875 M44.480 284.838 C 47.787 285.521,47.600 284.346,47.600 304.467 L 47.600 322.382 46.518 323.091 C 44.850 324.184,7.301 324.426,6.513 323.348 C 5.875 322.476,5.760 287.083,6.390 285.426 L 6.780 284.400 24.570 284.400 C 35.904 284.400,43.130 284.559,44.480 284.838 M115.659 285.254 L 118.000 286.107 118.000 304.401 L 118.000 322.695 115.674 323.347 C 112.215 324.318,77.814 324.336,77.443 323.367 C 77.127 322.544,77.136 286.480,77.452 285.300 L 77.693 284.400 95.506 284.400 C 112.693 284.400,113.400 284.430,115.659 285.254 M327.862 285.420 L 329.200 286.441 329.200 304.388 L 329.200 322.335 327.853 323.167 C 326.541 323.978,326.038 324.000,308.817 324.000 L 291.128 324.000 290.377 323.100 C 289.280 321.785,289.187 288.094,290.274 285.814 L 290.948 284.400 308.736 284.400 L 326.524 284.400 327.862 285.420 M5.914 353.300 C 5.022 354.862,4.959 393.333,5.846 395.300 L 6.521 396.800 25.361 396.796 C 46.636 396.791,46.615 396.792,48.574 394.998 L 50.000 393.692 50.000 375.433 L 50.000 357.173 49.001 355.201 C 47.514 352.267,48.582 352.400,26.440 352.400 L 6.428 352.400 5.914 353.300 M148.099 352.883 C 146.296 355.065,145.384 390.834,147.048 394.120 C 148.512 397.010,146.965 396.800,166.831 396.800 C 186.562 396.800,188.180 396.652,189.828 394.694 L 190.800 393.539 190.800 375.441 C 190.800 356.388,190.646 354.566,188.910 353.125 C 187.984 352.356,148.727 352.123,148.099 352.883 M219.126 352.900 C 217.377 354.295,217.200 356.364,217.200 375.411 L 217.200 393.480 218.403 395.140 L 219.605 396.800 237.667 396.800 C 253.587 396.800,255.987 396.719,257.897 396.117 C 261.847 394.872,261.648 396.036,261.515 374.917 C 261.381 353.649,261.380 353.643,258.196 352.841 C 255.565 352.178,219.963 352.232,219.126 352.900 M289.661 353.100 C 287.356 355.050,287.200 356.480,287.200 375.667 L 287.200 393.305 288.947 395.053 L 290.695 396.800 308.732 396.800 C 328.487 396.800,330.318 396.599,331.547 394.296 C 332.323 392.842,332.002 356.193,331.200 354.631 C 330.120 352.528,329.471 352.464,309.144 352.430 C 291.933 352.402,290.425 352.454,289.661 353.100 M44.733 355.660 C 47.693 356.344,47.600 355.687,47.600 375.829 L 47.600 393.620 46.574 394.010 C 45.958 394.244,37.727 394.400,25.982 394.400 L 6.415 394.400 6.191 393.500 C 5.843 392.105,6.158 356.264,6.524 355.700 C 6.967 355.015,41.783 354.979,44.733 355.660 M186.522 356.391 L 188.400 357.582 188.400 375.544 L 188.400 393.505 186.623 393.953 C 184.032 394.605,149.135 394.575,148.480 393.920 C 147.829 393.269,147.791 358.318,148.439 356.460 L 148.878 355.200 166.761 355.200 L 184.643 355.200 186.522 356.391 M257.223 356.467 L 258.800 357.734 258.800 375.487 L 258.800 393.241 257.413 393.820 C 254.961 394.845,219.771 394.666,219.214 393.626 C 218.488 392.270,218.663 358.425,219.405 356.649 L 220.011 355.200 237.829 355.200 L 255.647 355.200 257.223 356.467 M327.881 356.478 L 329.200 357.757 329.200 375.614 L 329.200 393.472 328.181 393.936 C 326.370 394.761,291.259 394.577,290.331 393.738 C 289.252 392.761,289.199 358.867,290.274 356.614 L 290.948 355.200 308.755 355.200 L 326.562 355.200 327.881 356.478 " stroke="none" fill="#3f3f3f" fill-rule="evenodd"></path><path id="path2" d="M74.800 21.369 L 74.800 42.738 76.031 43.969 L 77.262 45.200 96.931 45.198 C 117.674 45.195,118.752 45.113,121.100 43.340 L 122.400 42.359 122.400 24.240 C 122.400 14.274,122.284 4.744,122.141 3.060 L 121.883 0.000 120.698 0.000 C 119.544 0.000,119.520 0.040,119.797 1.500 C 119.954 2.325,120.164 11.856,120.265 22.680 L 120.448 42.359 118.840 43.180 C 116.468 44.390,77.750 44.471,76.662 43.269 C 76.063 42.607,76.000 40.498,76.000 21.269 C 76.000 2.630,75.926 0.000,75.400 0.000 C 74.874 0.000,74.800 2.641,74.800 21.369 M145.462 3.300 C 144.770 12.181,145.165 42.247,145.986 43.292 C 147.512 45.232,147.741 45.250,169.033 45.121 C 190.185 44.993,189.758 45.031,191.900 43.080 L 192.800 42.261 192.798 24.430 C 192.795 2.884,192.635 0.000,191.441 -0.000 L 190.600 -0.000 190.736 21.167 L 190.871 42.335 189.754 43.067 C 188.715 43.749,187.234 43.808,168.594 43.917 L 148.551 44.034 147.429 43.152 L 146.307 42.269 146.462 21.135 C 146.576 5.668,146.497 -0.000,146.168 -0.000 C 145.892 -0.000,145.619 1.277,145.462 3.300 M5.901 68.700 C 4.155 70.662,4.000 72.695,4.000 93.703 L 4.000 113.662 5.183 114.845 L 6.366 116.027 27.083 115.914 L 47.800 115.800 49.800 114.800 L 51.800 113.800 51.915 94.200 C 52.053 70.508,52.026 70.340,47.719 68.540 C 45.497 67.612,6.738 67.760,5.901 68.700 M76.570 68.990 C 74.878 71.571,74.836 72.161,74.818 93.211 C 74.798 115.296,74.724 114.574,77.132 115.572 C 78.001 115.932,83.343 116.022,98.248 115.927 L 118.200 115.800 120.200 114.800 L 122.200 113.800 122.304 93.584 L 122.407 73.368 121.229 71.510 C 119.003 67.999,120.494 68.215,97.536 68.086 L 77.237 67.972 76.570 68.990 M147.911 68.549 C 147.533 68.836,146.769 70.045,146.215 71.236 L 145.208 73.400 145.204 93.464 L 145.200 113.529 146.431 114.565 C 148.246 116.092,147.896 116.071,169.247 115.930 L 189.000 115.800 190.800 114.792 L 192.600 113.785 192.710 93.992 C 192.840 70.467,192.615 69.277,187.868 68.358 C 184.860 67.775,148.702 67.948,147.911 68.549 M219.000 68.471 C 217.923 69.105,217.303 69.895,216.387 71.800 C 215.237 74.192,215.170 113.087,216.315 114.123 C 218.327 115.944,218.983 116.000,237.887 115.992 C 256.905 115.983,260.069 115.775,261.994 114.404 L 263.200 113.546 263.200 93.559 L 263.200 73.573 262.197 71.594 C 260.382 68.013,261.690 68.213,239.418 68.101 C 224.944 68.027,219.590 68.124,219.000 68.471 M289.317 68.700 C 285.613 70.741,285.544 71.228,285.682 94.200 L 285.800 113.800 287.800 114.800 L 289.800 115.800 309.600 115.800 C 330.153 115.800,330.779 115.761,332.535 114.380 L 333.600 113.542 333.591 93.271 L 333.581 73.000 332.491 71.000 C 330.885 68.056,330.997 68.070,309.194 68.032 C 292.187 68.003,290.478 68.060,289.317 68.700 M48.227 71.677 L 50.000 73.553 50.000 93.533 L 50.000 113.513 48.392 114.157 C 46.301 114.993,6.505 115.145,5.680 114.320 C 4.702 113.342,5.025 73.112,6.026 71.149 L 6.852 69.530 26.653 69.665 L 46.454 69.800 48.227 71.677 M115.003 70.051 C 117.779 70.464,118.130 70.624,119.119 71.920 L 120.200 73.337 120.314 93.388 L 120.428 113.439 119.000 114.119 C 116.851 115.144,77.863 115.162,76.731 114.138 C 75.481 113.007,75.617 74.011,76.880 71.411 L 77.759 69.600 94.863 69.600 C 105.505 69.600,113.114 69.771,115.003 70.051 M186.216 70.205 C 187.965 70.648,188.893 71.150,189.700 72.089 L 190.800 73.370 190.800 93.471 L 190.800 113.572 189.900 114.086 C 189.207 114.482,184.320 114.626,168.641 114.714 L 148.282 114.828 147.305 113.914 L 146.329 113.000 146.465 93.200 L 146.600 73.400 147.717 71.500 L 148.834 69.600 166.333 69.600 C 180.628 69.600,184.268 69.711,186.216 70.205 M257.494 70.427 C 261.647 71.830,261.379 70.315,261.532 93.270 L 261.664 113.139 260.550 113.870 C 258.953 114.917,220.378 115.223,218.408 114.204 L 217.200 113.579 217.200 93.770 C 217.200 72.418,217.160 72.859,219.317 70.500 L 220.139 69.600 237.592 69.600 C 254.180 69.600,255.166 69.641,257.494 70.427 M328.533 70.554 C 332.236 72.191,332.000 70.631,332.000 93.475 L 332.000 113.572 331.100 114.086 C 329.503 114.998,289.696 114.817,288.283 113.891 L 287.200 113.182 287.200 96.251 C 287.200 74.063,287.242 73.588,289.395 71.341 L 291.063 69.600 308.720 69.600 L 326.377 69.600 328.533 70.554 M218.758 139.198 C 215.638 140.847,215.600 141.145,215.600 164.145 L 215.600 184.342 216.654 185.171 C 218.716 186.793,219.814 186.866,240.200 186.730 C 259.734 186.600,259.805 186.597,261.250 185.698 C 263.240 184.461,263.201 184.912,263.196 163.250 L 263.192 144.200 262.260 142.200 C 260.532 138.494,259.874 138.394,237.323 138.418 C 221.274 138.434,220.110 138.483,218.758 139.198 M360.429 139.036 C 355.915 140.250,355.903 140.324,356.068 164.858 C 356.219 187.093,355.946 185.557,359.881 186.348 C 362.815 186.937,400.000 186.985,400.000 186.400 C 400.000 186.139,393.417 185.991,381.100 185.976 C 364.369 185.954,361.948 185.872,360.000 185.261 L 357.800 184.572 357.696 163.902 L 357.593 143.231 359.733 141.616 L 361.873 140.000 380.936 140.000 C 399.733 140.000,400.000 139.989,400.000 139.200 C 400.000 138.136,364.326 137.989,360.429 139.036 M258.048 140.859 C 261.786 142.467,261.681 141.754,261.530 164.382 C 261.381 186.701,261.734 184.904,257.374 185.553 C 252.177 186.326,220.752 186.155,219.052 185.344 C 217.160 184.442,217.199 184.908,217.204 163.250 L 217.208 144.200 218.412 142.100 L 219.616 140.000 237.834 140.000 C 255.580 140.000,256.103 140.022,258.048 140.859 M5.740 210.071 C 4.191 211.759,4.000 214.315,4.003 233.320 C 4.007 253.946,4.088 255.179,5.527 256.618 L 6.543 257.634 26.971 257.517 C 51.207 257.378,50.759 257.451,51.579 253.502 C 52.470 249.209,51.966 214.086,50.989 212.400 C 49.242 209.385,49.479 209.416,26.797 209.271 L 6.593 209.143 5.740 210.071 M76.731 210.113 C 74.858 211.850,74.726 213.629,74.869 235.333 L 75.000 255.266 76.333 256.457 L 77.665 257.647 97.733 257.521 C 116.215 257.405,117.934 257.337,119.497 256.655 C 122.343 255.414,122.401 254.954,122.396 233.427 L 122.392 215.000 121.407 212.884 C 119.742 209.307,120.559 209.431,97.590 209.276 L 77.780 209.142 76.731 210.113 M359.934 209.874 C 356.139 210.871,356.005 211.663,356.002 233.167 C 355.999 255.939,356.057 256.260,360.320 257.155 C 363.898 257.906,400.000 257.765,400.000 257.000 C 400.000 256.475,397.607 256.400,380.860 256.400 C 359.961 256.400,359.738 256.378,358.421 254.145 C 357.624 252.795,357.600 252.197,357.600 233.525 L 357.600 214.295 359.347 212.547 L 361.095 210.800 380.547 210.800 C 399.733 210.800,400.000 210.789,400.000 210.000 C 400.000 208.928,363.968 208.815,359.934 209.874 M47.652 211.900 C 50.124 214.614,50.002 213.478,49.978 233.486 C 49.953 253.515,49.839 254.577,47.568 255.835 C 45.949 256.732,6.698 256.641,5.949 255.739 C 5.188 254.822,5.133 213.599,5.890 211.900 L 6.380 210.800 26.515 210.800 L 46.650 210.800 47.652 211.900 M116.524 211.061 C 117.837 211.278,118.211 211.596,119.220 213.356 L 120.392 215.400 120.396 233.492 C 120.400 252.503,120.300 253.687,118.528 255.600 C 117.893 256.285,78.287 256.731,77.271 256.064 C 75.718 255.045,75.284 215.817,76.789 212.500 L 77.561 210.800 96.280 210.804 C 106.576 210.807,115.686 210.922,116.524 211.061 M5.652 280.945 C 4.157 282.536,3.954 285.746,4.081 305.819 C 4.194 323.670,4.240 324.679,5.000 326.200 L 5.800 327.800 26.334 327.904 C 54.968 328.048,51.979 330.767,51.991 304.573 C 52.002 282.637,52.007 282.673,48.716 281.033 L 46.643 280.000 26.591 280.000 L 6.539 280.000 5.652 280.945 M77.100 280.422 C 75.043 281.649,75.009 281.983,74.871 302.800 C 74.734 323.322,74.894 325.711,76.507 327.214 C 77.802 328.420,116.771 328.439,119.131 327.235 C 122.412 325.561,122.449 325.290,122.316 303.800 C 122.186 282.691,122.193 282.745,119.200 281.011 C 117.581 280.073,78.600 279.528,77.100 280.422 M288.852 280.887 C 285.733 282.398,285.800 281.894,285.800 304.000 C 285.800 325.868,285.789 325.784,288.800 327.309 C 290.636 328.238,329.491 328.204,331.126 327.272 C 333.490 325.924,333.600 324.911,333.598 304.467 C 333.595 281.690,333.535 281.367,329.132 280.423 C 324.924 279.520,290.862 279.913,288.852 280.887 M359.600 280.652 C 356.069 281.857,355.907 283.013,356.074 305.800 C 356.217 325.262,356.308 326.039,358.600 327.195 C 360.428 328.117,400.000 328.323,400.000 327.411 C 400.000 326.872,397.753 326.800,380.836 326.800 L 361.672 326.800 359.636 325.191 L 357.600 323.581 357.600 304.434 L 357.600 285.287 358.900 283.679 C 360.662 281.500,359.480 281.612,380.900 281.605 C 399.732 281.600,400.000 281.589,400.000 280.800 C 400.000 279.708,362.767 279.572,359.600 280.652 M47.583 282.383 C 50.011 284.811,50.000 284.713,50.000 304.527 L 50.000 322.685 48.620 324.492 C 46.742 326.951,48.212 326.800,26.216 326.800 L 6.497 326.800 5.949 325.500 C 5.192 323.706,5.138 284.388,5.890 282.700 L 6.380 281.600 26.590 281.600 C 46.124 281.600,46.826 281.626,47.583 282.383 M117.200 281.955 C 117.845 282.132,118.588 282.936,119.291 284.215 L 120.381 286.200 120.391 304.469 L 120.400 322.738 119.080 324.468 C 117.315 326.783,118.148 326.698,96.480 326.753 L 77.561 326.800 76.789 325.100 C 75.261 321.734,75.701 284.051,77.291 282.100 C 77.737 281.552,115.243 281.416,117.200 281.955 M329.200 282.301 C 332.014 283.706,331.999 283.589,331.999 304.281 C 332.000 324.884,332.091 324.188,329.199 325.762 L 327.292 326.800 308.868 326.800 L 290.444 326.800 288.822 324.535 L 287.200 322.270 287.200 304.522 L 287.200 286.773 288.184 284.831 C 289.964 281.318,288.139 281.600,309.129 281.601 C 326.103 281.601,327.927 281.665,329.200 282.301 M6.515 350.660 C 6.248 350.768,5.618 351.519,5.115 352.328 L 4.200 353.800 4.074 373.626 C 3.951 392.855,3.972 393.518,4.773 395.626 C 5.228 396.822,5.600 398.295,5.600 398.900 L 5.600 400.000 27.000 400.000 L 48.400 400.000 48.400 398.846 C 48.400 398.051,48.717 397.484,49.419 397.024 C 52.039 395.307,51.997 395.658,51.999 375.767 C 52.001 351.486,52.009 351.516,44.816 350.760 C 41.586 350.421,7.326 350.331,6.515 350.660 M147.851 351.266 C 145.414 353.117,145.412 353.133,145.278 374.168 L 145.157 393.335 146.378 395.817 C 147.050 397.182,147.600 398.681,147.600 399.149 L 147.600 400.000 168.400 400.000 L 189.200 400.000 189.200 398.843 C 189.200 398.182,189.458 397.587,189.801 397.455 C 190.132 397.328,190.942 396.374,191.601 395.334 L 192.800 393.443 192.800 375.499 C 192.800 353.732,192.687 353.045,188.800 351.250 C 186.257 350.076,149.399 350.090,147.851 351.266 M219.000 351.144 C 215.664 353.205,215.621 353.509,215.610 375.460 L 215.600 393.920 217.000 396.000 C 217.770 397.144,218.400 398.512,218.400 399.040 L 218.400 400.000 239.200 400.000 L 260.000 400.000 260.000 398.870 C 260.000 398.188,260.388 397.375,260.977 396.821 C 263.206 394.727,263.200 394.783,263.195 375.340 C 263.189 352.187,263.149 352.006,257.732 350.958 C 252.935 350.030,220.552 350.185,219.000 351.144 M289.400 351.340 C 285.615 353.105,285.600 353.197,285.600 375.433 C 285.600 394.897,285.603 394.921,287.946 396.893 C 288.751 397.571,289.200 398.316,289.200 398.974 L 289.200 400.000 309.800 400.000 L 330.400 400.000 330.400 399.056 C 330.400 398.529,331.011 397.464,331.784 396.644 C 333.683 394.631,333.659 394.946,333.522 373.600 C 333.376 350.793,333.688 352.083,328.000 350.819 C 323.753 349.876,291.610 350.310,289.400 351.340 M47.227 352.814 C 47.653 353.042,48.451 354.116,49.001 355.201 L 50.000 357.173 50.000 375.433 L 50.000 393.692 48.574 394.998 C 46.615 396.792,46.636 396.791,25.361 396.796 L 6.521 396.800 5.846 395.300 C 4.959 393.333,5.022 354.862,5.914 353.300 L 6.428 352.400 26.440 352.400 C 39.479 352.400,46.722 352.544,47.227 352.814 M188.910 353.125 C 190.646 354.566,190.800 356.388,190.800 375.441 L 190.800 393.539 189.828 394.694 C 188.180 396.652,186.562 396.800,166.831 396.800 C 146.965 396.800,148.512 397.010,147.048 394.120 C 145.384 390.834,146.296 355.065,148.099 352.883 C 148.727 352.123,187.984 352.356,188.910 353.125 M258.196 352.841 C 261.380 353.643,261.381 353.649,261.515 374.917 C 261.648 396.036,261.847 394.872,257.897 396.117 C 255.987 396.719,253.587 396.800,237.667 396.800 L 219.605 396.800 218.403 395.140 L 217.200 393.480 217.200 375.411 C 217.200 356.364,217.377 354.295,219.126 352.900 C 219.963 352.232,255.565 352.178,258.196 352.841 M329.200 352.962 C 331.812 353.897,331.787 353.704,331.913 374.600 C 332.040 395.835,332.189 394.773,328.920 395.996 C 326.883 396.758,325.823 396.800,308.732 396.800 L 290.695 396.800 288.947 395.053 L 287.200 393.305 287.200 375.667 C 287.200 356.480,287.356 355.050,289.661 353.100 C 290.728 352.197,326.713 352.072,329.200 352.962 " stroke="none" fill="#717171" fill-rule="evenodd"></path><path id="path3" d="M73.054 1.856 C 72.285 7.469,72.849 42.572,73.735 44.200 C 75.133 46.768,74.989 46.753,97.600 46.771 C 121.872 46.791,122.809 46.664,124.641 43.121 C 125.245 41.952,125.472 11.973,124.938 3.900 L 124.679 -0.000 123.440 -0.000 L 122.200 -0.000 122.333 21.154 L 122.466 42.309 121.133 43.315 C 118.748 45.116,117.724 45.195,96.931 45.198 L 77.262 45.200 76.031 43.969 L 74.800 42.738 74.800 21.369 C 74.800 0.786,74.773 -0.000,74.054 -0.000 C 73.471 -0.000,73.254 0.403,73.054 1.856 M142.400 21.461 L 142.400 42.923 144.070 44.465 C 146.647 46.844,146.734 46.852,169.716 46.720 C 198.889 46.552,195.997 48.876,195.997 25.600 C 195.997 16.470,195.880 6.975,195.737 4.500 L 195.478 0.000 194.039 -0.000 L 192.600 -0.000 192.736 21.028 C 192.888 44.418,193.067 42.768,190.201 44.341 C 188.404 45.327,149.486 45.575,147.623 44.612 C 145.019 43.266,145.113 44.205,145.264 21.015 L 145.400 -0.000 143.900 -0.000 L 142.400 0.000 142.400 21.461 M5.600 66.277 C 2.950 67.646,3.013 67.066,2.879 91.200 C 2.743 115.624,2.723 115.317,4.522 116.428 C 6.384 117.579,49.762 117.458,51.888 116.296 C 54.036 115.122,54.000 115.519,53.998 92.926 C 53.995 67.781,53.982 67.701,49.751 66.382 C 46.843 65.476,7.334 65.382,5.600 66.277 M76.600 66.139 C 73.163 67.719,73.077 68.336,72.915 92.591 C 72.771 114.170,72.779 114.289,74.664 116.060 L 75.664 117.000 96.903 117.114 C 120.654 117.241,121.725 117.155,123.915 114.965 L 125.257 113.623 125.098 92.712 C 124.909 67.841,124.917 67.883,120.088 66.362 C 117.714 65.615,78.182 65.412,76.600 66.139 M147.400 66.184 C 142.629 67.944,142.400 69.194,142.400 93.525 L 142.400 113.706 143.817 115.042 C 146.117 117.211,146.519 117.243,169.704 117.116 C 190.564 117.002,191.038 116.982,192.872 116.135 C 196.220 114.588,196.099 115.524,195.896 92.648 C 195.682 68.618,195.705 68.747,191.200 66.656 C 188.799 65.542,150.267 65.127,147.400 66.184 M218.214 66.168 C 215.587 66.898,213.839 68.797,213.245 71.565 C 212.522 74.935,212.635 112.922,213.372 114.347 C 214.733 116.978,214.948 117.000,239.587 117.000 C 263.951 117.000,262.781 117.110,265.308 114.583 L 266.400 113.491 266.400 93.559 C 266.400 63.380,268.752 65.860,240.000 65.716 C 224.153 65.636,219.804 65.726,218.214 66.168 M289.534 65.992 C 283.617 67.046,283.824 66.124,283.683 91.977 C 283.597 107.751,283.691 113.653,284.040 114.496 C 285.083 117.015,284.820 116.987,308.400 117.130 C 332.587 117.277,333.265 117.221,335.193 114.882 L 336.400 113.418 336.390 93.409 C 336.378 69.403,336.208 68.359,332.000 66.457 C 330.422 65.744,293.214 65.336,289.534 65.992 M47.719 68.540 C 52.026 70.340,52.053 70.508,51.915 94.200 L 51.800 113.800 49.800 114.800 L 47.800 115.800 27.083 115.914 L 6.366 116.027 5.183 114.845 L 4.000 113.662 4.000 93.703 C 4.000 72.695,4.155 70.662,5.901 68.700 C 6.738 67.760,45.497 67.612,47.719 68.540 M118.943 68.926 C 119.552 69.325,120.581 70.488,121.229 71.510 L 122.407 73.368 122.304 93.584 L 122.200 113.800 120.200 114.800 L 118.200 115.800 98.248 115.927 C 83.343 116.022,78.001 115.932,77.132 115.572 C 74.724 114.574,74.798 115.296,74.818 93.211 C 74.836 72.161,74.878 71.571,76.570 68.990 L 77.237 67.972 97.536 68.086 C 116.357 68.192,117.917 68.253,118.943 68.926 M187.868 68.358 C 192.615 69.277,192.840 70.467,192.710 93.992 L 192.600 113.785 190.800 114.792 L 189.000 115.800 169.247 115.930 C 147.896 116.071,148.246 116.092,146.431 114.565 L 145.200 113.529 145.204 93.464 L 145.208 73.400 146.215 71.236 C 146.769 70.045,147.533 68.836,147.911 68.549 C 148.702 67.948,184.860 67.775,187.868 68.358 M260.115 68.907 C 260.708 69.296,261.645 70.505,262.197 71.594 L 263.200 73.573 263.200 93.559 L 263.200 113.546 261.994 114.404 C 260.069 115.775,256.905 115.983,237.887 115.992 C 218.983 116.000,218.327 115.944,216.315 114.123 C 215.170 113.087,215.237 74.192,216.387 71.800 C 218.325 67.769,216.971 67.987,239.418 68.101 C 257.404 68.192,259.126 68.259,260.115 68.907 M329.600 68.532 C 331.168 68.940,331.541 69.258,332.491 71.000 L 333.581 73.000 333.591 93.271 L 333.600 113.542 332.535 114.380 C 330.779 115.761,330.153 115.800,309.600 115.800 L 289.800 115.800 287.800 114.800 L 285.800 113.800 285.682 94.200 C 285.544 71.228,285.613 70.741,289.317 68.700 C 290.898 67.829,326.326 67.681,329.600 68.532 M217.272 137.307 C 212.910 138.703,212.800 139.370,212.800 164.389 L 212.800 184.738 213.978 185.916 C 215.974 187.912,217.053 188.001,239.277 187.990 C 262.927 187.979,264.480 187.776,265.978 184.489 C 266.708 182.887,266.543 144.628,265.796 142.110 C 265.092 139.742,263.215 137.864,260.911 137.224 C 258.841 136.649,219.091 136.725,217.272 137.307 M358.600 137.067 C 354.493 137.961,354.617 137.190,354.489 162.600 C 354.363 187.543,354.260 186.679,357.479 187.573 C 360.133 188.310,400.000 188.148,400.000 187.400 C 400.000 186.875,397.630 186.800,381.067 186.800 C 361.244 186.800,358.259 186.591,356.915 185.106 C 355.840 183.919,355.570 146.756,356.609 142.916 C 357.825 138.417,357.918 138.400,381.484 138.400 C 399.733 138.400,400.000 138.388,400.000 137.600 C 400.000 136.843,361.882 136.352,358.600 137.067 M257.323 138.842 C 260.719 139.363,261.038 139.580,262.260 142.200 L 263.192 144.200 263.196 163.250 C 263.201 184.912,263.240 184.461,261.250 185.698 C 259.805 186.597,259.734 186.600,240.200 186.730 C 219.814 186.866,218.716 186.793,216.654 185.171 L 215.600 184.342 215.600 164.145 C 215.600 141.145,215.638 140.847,218.758 139.198 C 220.480 138.287,251.828 137.998,257.323 138.842 M5.730 207.761 C 2.899 209.043,3.013 208.035,2.887 233.077 C 2.762 258.132,2.699 257.497,5.414 258.632 C 7.054 259.317,43.542 259.453,48.123 258.790 C 54.368 257.887,54.000 259.434,53.998 234.081 C 53.995 209.092,53.989 209.054,49.739 207.924 C 47.060 207.212,7.268 207.064,5.730 207.761 M76.170 207.936 C 72.949 209.442,72.714 211.396,72.872 235.400 C 73.012 256.757,72.975 256.421,75.329 258.164 C 77.575 259.828,119.058 259.528,122.353 257.824 C 125.070 256.419,124.986 257.084,125.133 235.934 C 125.309 210.748,125.158 209.790,120.767 208.230 C 117.388 207.029,78.654 206.774,76.170 207.936 M359.990 207.590 C 354.334 208.320,354.600 207.036,354.600 233.600 C 354.600 257.770,354.527 256.992,356.912 258.296 C 358.086 258.938,360.054 259.012,379.100 259.131 L 400.000 259.262 400.000 258.431 C 400.000 257.601,399.968 257.600,381.220 257.600 C 357.195 257.600,357.232 257.607,356.436 253.038 C 355.858 249.720,355.847 216.402,356.423 214.200 C 357.758 209.095,357.237 209.200,381.382 209.200 L 400.000 209.200 400.000 208.200 L 400.000 207.200 381.100 207.252 C 370.705 207.281,361.206 207.433,359.990 207.590 M48.589 210.200 C 51.859 211.847,51.785 211.347,51.915 232.564 C 52.052 254.903,52.012 255.268,49.264 256.539 C 47.444 257.380,46.916 257.403,26.971 257.517 L 6.543 257.634 5.527 256.618 C 4.088 255.179,4.007 253.946,4.003 233.320 C 4.000 214.315,4.191 211.759,5.740 210.071 L 6.593 209.143 26.797 209.271 C 46.064 209.394,47.074 209.437,48.589 210.200 M118.911 210.089 C 120.082 210.616,120.644 211.244,121.407 212.884 L 122.392 215.000 122.396 233.427 C 122.401 254.954,122.343 255.414,119.497 256.655 C 117.934 257.337,116.215 257.405,97.733 257.521 L 77.665 257.647 76.333 256.457 L 75.000 255.266 74.869 235.333 C 74.726 213.629,74.858 211.850,76.731 210.113 L 77.780 209.142 97.590 209.276 C 115.185 209.394,117.569 209.485,118.911 210.089 M5.062 278.453 C 2.880 279.721,2.818 280.422,2.811 303.800 C 2.804 327.342,2.854 327.950,4.925 329.230 C 6.730 330.347,48.389 330.259,50.869 329.133 C 53.939 327.740,53.800 328.932,53.800 304.018 L 53.800 281.800 52.879 280.509 C 51.140 278.071,50.383 277.999,26.827 278.012 C 12.609 278.020,5.561 278.163,5.062 278.453 M76.200 278.378 C 73.130 279.635,72.797 282.185,72.814 304.326 C 72.832 327.127,73.052 328.538,76.765 329.628 C 77.715 329.907,85.238 330.008,99.000 329.925 L 119.800 329.800 121.800 328.800 C 125.076 327.162,124.997 327.761,124.998 304.600 C 125.000 280.013,124.999 280.003,120.297 278.607 C 118.027 277.932,77.798 277.724,76.200 278.378 M288.200 278.371 C 283.628 279.475,283.800 278.466,283.800 304.218 C 283.800 328.908,283.663 327.741,286.731 329.133 C 289.266 330.284,330.763 330.132,333.000 328.965 C 336.321 327.231,336.450 326.240,336.300 303.626 C 336.147 280.421,335.987 279.597,331.428 278.449 C 329.423 277.944,290.262 277.874,288.200 278.371 M358.354 278.281 C 356.652 278.544,355.254 280.359,354.781 282.920 C 354.092 286.648,354.443 325.892,355.178 327.330 C 356.453 329.824,356.119 329.788,379.100 329.920 L 400.000 330.040 400.000 329.031 L 400.000 328.021 379.900 327.911 C 357.326 327.786,357.875 327.856,356.802 324.995 C 355.996 322.849,355.675 289.742,356.417 285.400 C 357.373 279.804,356.489 280.000,380.846 280.000 L 400.000 280.000 400.000 279.000 L 400.000 278.000 379.700 278.060 C 368.535 278.093,358.929 278.192,358.354 278.281 M48.716 281.033 C 52.007 282.673,52.002 282.637,51.991 304.573 C 51.979 330.767,54.968 328.048,26.334 327.904 L 5.800 327.800 5.000 326.200 C 4.240 324.679,4.194 323.670,4.081 305.819 C 3.954 285.746,4.157 282.536,5.652 280.945 L 6.539 280.000 26.591 280.000 L 46.643 280.000 48.716 281.033 M119.200 281.011 C 122.193 282.745,122.186 282.691,122.316 303.800 C 122.449 325.290,122.412 325.561,119.131 327.235 C 116.771 328.439,77.802 328.420,76.507 327.214 C 74.894 325.711,74.734 323.322,74.871 302.800 C 75.009 281.983,75.043 281.649,77.100 280.422 C 78.600 279.528,117.581 280.073,119.200 281.011 M329.132 280.423 C 333.535 281.367,333.595 281.690,333.598 304.467 C 333.600 324.911,333.490 325.924,331.126 327.272 C 329.491 328.204,290.636 328.238,288.800 327.309 C 285.789 325.784,285.800 325.868,285.800 304.000 C 285.800 281.894,285.733 282.398,288.852 280.887 C 290.862 279.913,324.924 279.520,329.132 280.423 M5.097 349.037 C 2.832 351.237,2.805 351.529,2.802 373.640 C 2.799 398.611,2.887 400.000,4.459 400.000 C 5.897 400.000,5.983 398.808,4.773 395.626 C 3.439 392.116,3.730 354.556,5.108 352.340 C 6.373 350.306,5.441 350.398,24.533 350.422 C 44.603 350.447,47.146 350.624,49.464 352.158 C 51.902 353.771,52.000 354.683,51.999 375.767 C 51.997 395.658,52.039 395.307,49.419 397.024 C 47.285 398.423,47.995 400.000,50.758 400.000 L 53.116 400.000 53.405 398.300 C 53.765 396.175,54.126 355.076,53.800 353.291 C 53.542 351.883,51.446 349.200,50.602 349.200 C 50.319 349.200,49.303 348.844,48.344 348.409 C 46.682 347.655,45.661 347.617,26.588 347.609 L 6.577 347.600 5.097 349.037 M146.800 348.926 C 145.810 349.662,144.460 351.044,143.800 351.998 L 142.600 353.730 142.479 373.919 L 142.359 394.107 143.379 396.194 C 143.941 397.341,144.400 398.667,144.400 399.140 C 144.400 399.877,144.629 400.000,146.000 400.000 C 148.027 400.000,148.091 399.295,146.378 395.817 L 145.157 393.335 145.278 374.168 C 145.413 353.008,145.408 353.046,147.955 351.232 L 149.201 350.345 168.301 350.475 C 195.262 350.658,192.800 348.143,192.800 375.499 L 192.800 393.443 191.601 395.334 C 190.942 396.374,190.132 397.328,189.801 397.455 C 189.458 397.587,189.200 398.182,189.200 398.843 L 189.200 400.000 191.800 400.000 C 194.315 400.000,194.400 399.967,194.400 398.987 C 194.400 398.430,194.773 396.866,195.230 395.511 C 196.032 393.130,196.056 392.404,195.930 373.824 L 195.800 354.600 194.800 352.600 C 193.958 350.916,193.389 350.379,191.200 349.200 L 188.600 347.800 168.600 347.694 L 148.600 347.588 146.800 348.926 M217.402 348.955 C 214.498 350.596,213.580 351.748,213.164 354.275 C 212.537 358.092,212.735 393.658,213.396 395.836 C 213.723 396.916,213.993 398.295,213.996 398.900 C 214.000 399.966,214.068 400.000,216.200 400.000 C 218.954 400.000,219.123 399.154,217.000 396.000 L 215.600 393.920 215.610 375.460 C 215.621 353.438,215.714 352.817,219.280 350.962 C 220.798 350.172,253.655 350.169,257.732 350.958 C 263.149 352.006,263.189 352.187,263.195 375.340 C 263.200 394.783,263.206 394.727,260.977 396.821 C 259.074 398.609,259.609 400.000,262.200 400.000 C 264.313 400.000,264.400 399.958,264.400 398.940 C 264.400 398.357,264.860 396.940,265.421 395.792 L 266.442 393.705 266.321 374.153 C 266.145 345.801,268.246 347.850,239.200 347.700 L 219.800 347.601 217.402 348.955 M288.520 348.546 C 285.634 349.762,284.525 350.927,284.023 353.268 C 283.445 355.962,283.466 393.629,284.047 395.800 C 284.282 396.680,284.567 397.985,284.681 398.700 C 284.884 399.980,284.920 400.000,287.044 400.000 C 289.721 400.000,290.098 398.704,287.946 396.893 C 285.603 394.921,285.600 394.897,285.600 375.433 C 285.600 353.197,285.615 353.105,289.400 351.340 C 291.610 350.310,323.753 349.876,328.000 350.819 C 333.688 352.083,333.376 350.793,333.522 373.600 C 333.659 394.946,333.683 394.631,331.784 396.644 C 329.619 398.940,329.860 400.000,332.546 400.000 L 334.691 400.000 334.939 398.193 C 335.075 397.199,335.460 395.858,335.793 395.213 C 336.688 393.483,336.696 357.704,335.802 354.274 C 334.131 347.855,333.038 347.588,308.680 347.635 C 291.013 347.669,290.553 347.690,288.520 348.546 " stroke="none" fill="#a5a5a5" fill-rule="evenodd"></path><path id="path4" d="M0.000 200.000 L 0.000 400.000 1.500 400.000 L 3.000 400.000 2.869 376.858 C 2.725 351.367,2.727 351.339,5.093 349.041 L 6.577 347.600 26.588 347.609 C 45.661 347.617,46.682 347.655,48.344 348.409 C 49.303 348.844,50.319 349.200,50.602 349.200 C 51.446 349.200,53.542 351.883,53.800 353.291 C 54.126 355.076,53.765 396.175,53.405 398.300 L 53.116 400.000 98.758 400.000 L 144.400 400.000 144.400 399.140 C 144.400 398.667,143.941 397.341,143.379 396.194 L 142.359 394.107 142.479 373.919 L 142.600 353.730 143.800 351.998 C 144.460 351.044,145.810 349.662,146.800 348.926 L 148.600 347.588 168.600 347.694 L 188.600 347.800 191.200 349.200 C 193.389 350.379,193.958 350.916,194.800 352.600 L 195.800 354.600 195.930 373.824 C 196.056 392.404,196.032 393.130,195.230 395.511 C 194.773 396.866,194.400 398.430,194.400 398.987 L 194.400 400.000 204.200 400.000 L 214.000 400.000 213.996 398.900 C 213.993 398.295,213.723 396.916,213.396 395.836 C 212.735 393.658,212.537 358.092,213.164 354.275 C 213.580 351.748,214.498 350.596,217.402 348.955 L 219.800 347.601 239.200 347.700 C 268.246 347.850,266.145 345.801,266.321 374.153 L 266.442 393.705 265.421 395.792 C 264.860 396.940,264.400 398.357,264.400 398.940 L 264.400 400.000 274.644 400.000 L 284.888 400.000 284.681 398.700 C 284.567 397.985,284.282 396.680,284.047 395.800 C 283.467 393.633,283.445 355.962,284.022 353.274 C 285.154 347.995,286.882 347.600,308.834 347.600 C 333.028 347.600,334.135 347.874,335.802 354.274 C 336.696 357.704,336.688 393.483,335.793 395.213 C 335.460 395.858,335.075 397.199,334.939 398.193 L 334.691 400.000 367.346 400.000 L 400.000 400.000 400.000 365.020 L 400.000 330.040 379.100 329.920 C 360.449 329.813,358.068 329.728,356.978 329.130 C 354.577 327.814,354.611 328.133,354.480 305.699 C 354.347 283.016,354.470 281.346,356.412 279.403 L 357.615 278.200 378.807 278.083 L 400.000 277.967 400.000 268.615 L 400.000 259.262 379.100 259.131 C 356.348 258.988,356.426 258.996,355.112 256.696 C 354.187 255.077,354.387 211.791,355.327 210.068 C 356.775 207.414,356.699 207.422,379.500 207.275 L 400.000 207.142 400.000 197.571 L 400.000 188.000 379.500 187.998 C 357.133 187.995,356.444 187.935,355.168 185.875 C 354.136 184.208,354.130 141.517,355.162 139.506 C 356.488 136.920,355.660 137.012,378.900 136.883 L 400.000 136.767 400.000 68.383 L 400.000 0.000 297.897 0.000 L 195.794 0.000 195.921 21.100 C 196.093 49.644,199.258 46.550,169.716 46.720 C 146.734 46.852,146.647 46.844,144.070 44.465 L 142.400 42.923 142.400 21.461 L 142.400 0.000 133.700 -0.000 L 125.000 -0.000 125.141 20.818 C 125.291 42.899,125.281 43.033,123.392 44.807 C 121.463 46.620,119.245 46.789,97.600 46.771 C 74.753 46.753,75.132 46.796,73.683 44.027 L 72.755 42.254 72.878 21.127 L 73.000 -0.000 36.500 -0.000 L 0.000 0.000 0.000 200.000 M49.751 66.382 C 53.982 67.701,53.995 67.781,53.998 92.926 C 54.000 115.519,54.036 115.122,51.888 116.296 C 49.762 117.458,6.384 117.579,4.522 116.428 C 2.723 115.317,2.743 115.624,2.879 91.200 C 3.013 67.066,2.950 67.646,5.600 66.277 C 7.334 65.382,46.843 65.476,49.751 66.382 M120.088 66.362 C 124.917 67.883,124.909 67.841,125.098 92.712 L 125.257 113.623 123.915 114.965 C 121.725 117.155,120.654 117.241,96.903 117.114 L 75.664 117.000 74.664 116.060 C 72.779 114.289,72.771 114.170,72.915 92.591 C 73.077 68.336,73.163 67.719,76.600 66.139 C 78.182 65.412,117.714 65.615,120.088 66.362 M191.200 66.656 C 195.705 68.747,195.682 68.618,195.896 92.648 C 196.099 115.524,196.220 114.588,192.872 116.135 C 191.038 116.982,190.564 117.002,169.704 117.116 C 146.519 117.243,146.117 117.211,143.817 115.042 L 142.400 113.706 142.400 93.525 C 142.400 69.194,142.629 67.944,147.400 66.184 C 150.267 65.127,188.799 65.542,191.200 66.656 M261.637 66.657 C 266.247 68.770,266.400 69.636,266.400 93.559 L 266.400 113.491 265.308 114.583 C 262.781 117.110,263.951 117.000,239.587 117.000 C 214.948 117.000,214.733 116.978,213.372 114.347 C 212.635 112.922,212.522 74.935,213.245 71.565 C 213.839 68.797,215.587 66.898,218.214 66.168 C 221.883 65.148,259.264 65.569,261.637 66.657 M332.000 66.457 C 336.208 68.359,336.378 69.403,336.390 93.409 L 336.400 113.418 335.193 114.882 C 333.265 117.221,332.587 117.277,308.400 117.130 C 284.820 116.987,285.083 117.015,284.040 114.496 C 283.111 112.254,283.620 70.961,284.600 69.000 C 286.217 65.766,287.224 65.641,311.000 65.742 C 327.895 65.813,330.793 65.911,332.000 66.457 M260.911 137.224 C 263.215 137.864,265.092 139.742,265.796 142.110 C 266.543 144.628,266.708 182.887,265.978 184.489 C 264.480 187.776,262.927 187.979,239.277 187.990 C 217.053 188.001,215.974 187.912,213.978 185.916 L 212.800 184.738 212.800 164.389 C 212.800 139.370,212.910 138.703,217.272 137.307 C 219.091 136.725,258.841 136.649,260.911 137.224 M49.739 207.924 C 53.989 209.054,53.995 209.092,53.998 234.081 C 54.000 259.434,54.368 257.887,48.123 258.790 C 43.542 259.453,7.054 259.317,5.414 258.632 C 2.699 257.497,2.762 258.132,2.887 233.077 C 3.013 208.035,2.899 209.043,5.730 207.761 C 7.268 207.064,47.060 207.212,49.739 207.924 M120.767 208.230 C 125.158 209.790,125.309 210.748,125.133 235.934 C 124.986 257.084,125.070 256.419,122.353 257.824 C 119.058 259.528,77.575 259.828,75.329 258.164 C 72.975 256.421,73.012 256.757,72.872 235.400 C 72.714 211.396,72.949 209.442,76.170 207.936 C 78.654 206.774,117.388 207.029,120.767 208.230 M49.907 278.609 C 51.366 279.043,52.225 279.592,52.879 280.509 L 53.800 281.800 53.800 304.018 C 53.800 328.932,53.939 327.740,50.869 329.133 C 48.389 330.259,6.730 330.347,4.925 329.230 C 2.854 327.950,2.804 327.342,2.811 303.800 C 2.818 280.422,2.880 279.721,5.062 278.453 C 6.345 277.708,47.352 277.851,49.907 278.609 M120.297 278.607 C 124.999 280.003,125.000 280.013,124.998 304.600 C 124.997 327.761,125.076 327.162,121.800 328.800 L 119.800 329.800 99.000 329.925 C 85.238 330.008,77.715 329.907,76.765 329.628 C 73.052 328.538,72.832 327.127,72.814 304.326 C 72.797 282.185,73.130 279.635,76.200 278.378 C 77.798 277.724,118.027 277.932,120.297 278.607 M331.428 278.449 C 335.987 279.597,336.147 280.421,336.300 303.626 C 336.450 326.240,336.321 327.231,333.000 328.965 C 330.763 330.132,289.266 330.284,286.731 329.133 C 283.663 327.741,283.800 328.908,283.800 304.218 C 283.800 278.466,283.628 279.475,288.200 278.371 C 290.262 277.874,329.423 277.944,331.428 278.449 " stroke="none" fill="#ffffff" fill-rule="evenodd"></path></g></svg>