<svg version="1.1" xmlns="http://www.w3.org/2000/svg" viewBox="0 0 987 1024" height="25" width="25">
<title/>
<g id="icomoon-ignore">
</g>
<path d="M987.008 18.553c0 330.152 0 657.329 0 986.891-329.075 0-656.241 0-987.015 0 0-327.239 0-655.453 0-986.891 326.866 0 655.079 0 987.015 0zM140.186 862.97c237.163 0 470.864 0 703.435 0 0-236.843 0-470.533 0-703.487-236.158 0-468.823 0-703.435 0 0 234.966 0 467.619 0 703.487zM281.966 721.18c0-141.344 0-279.475 0-419.906 140.089 0 278.21 0 419.854 0 0 138.399 0 277.577 0 419.906-138.027 0-277.194 0-419.854 0z"/>
</svg>
